<svg xmlns="http://www.w3.org/2000/svg" width="22" height="22" viewBox="0 0 22 22">
    <g fill="#FFF" fill-rule="evenodd">
        <path fill-rule="nonzero" d="M10 7.935H7.973c-2.403 0-4.578 1.12-5.616 2.848a1 1 0 0 1-1.714-1.03c1.415-2.357 4.252-3.818 7.33-3.818H10v2z"/>
        <path d="M13 20.967c-.828 0-1.5-.56-1.5-1.25V19.3h4v.417c0 .69-.672 1.25-1.5 1.25h-1zM19.155 14H7.845C8.815 11.646 9.5 8.793 9.5 4.435v-.833c0-1.38 1.344-2.5 3-2.5h2c1.657 0 3 1.12 3 2.5v.833c0 4.358.685 7.212 1.655 9.565zm.44 1c.588 1.253 1.247 2.394 1.905 3.602h-16c.66-1.209 1.318-2.35 1.904-3.602h12.192z"/>
    </g>
</svg>
